<svg version="1.1" id="Layer_1" xmlns="http://www.w3.org/2000/svg" xmlns:xlink="http://www.w3.org/1999/xlink" x="0px" y="0px"
	 width="100%" viewBox="0 0 1024 768" enable-background="new 0 0 1024 768" xml:space="preserve">
<path fill="#000000" opacity="1.000000" stroke="none" 
	d="
M456.097290,600.952515 
	C446.236206,595.657654 436.674011,590.580261 427.143219,585.444641 
	C423.124908,583.279297 418.638092,584.453125 414.416534,583.493286 
	C408.296387,582.101807 402.504181,580.134705 397.740143,576.018921 
	C392.901459,571.838684 387.338409,570.391541 381.133057,570.355774 
	C360.174011,570.234985 349.080109,561.559082 343.624786,541.093445 
	C342.854156,538.202393 342.306213,535.252747 341.603943,532.342590 
	C340.921967,529.516418 339.865112,526.504639 337.102570,525.490173 
	C333.192261,524.054138 332.198425,521.011902 331.066528,517.662781 
	C322.998230,493.789551 311.753632,471.242279 301.831360,448.145264 
	C298.607849,440.641632 298.268707,433.062225 298.974945,424.716156 
	C304.844452,425.088531 304.836823,421.906769 304.020752,417.307159 
	C301.524078,403.235321 297.086517,389.819794 290.330994,377.315857 
	C286.383789,370.009857 284.428741,363.192017 286.451935,354.694275 
	C289.136536,343.418732 290.122711,331.760864 292.389099,320.340851 
	C296.288757,300.691071 306.232513,284.904419 321.414520,272.104767 
	C325.737762,268.459900 329.754395,264.438324 333.778229,260.454803 
	C338.218262,256.059265 341.668091,251.003571 343.305206,244.861893 
	C344.407013,240.728333 346.675537,237.361908 349.739899,234.360992 
	C360.452454,223.870270 370.998627,213.221100 381.989319,203.002167 
	C388.246857,197.184036 394.855347,194.361389 403.199371,195.835922 
	C409.108856,196.880234 412.674622,195.190842 415.894165,189.437363 
	C421.193665,179.966827 429.808289,174.817413 441.300171,176.508606 
	C444.079895,176.917679 446.218140,175.703094 448.134613,174.095398 
	C451.449860,171.314362 454.593597,168.329330 457.820648,165.442566 
	C459.428772,164.004044 461.025238,162.113068 463.447937,163.031052 
	C465.856750,163.943802 465.093109,166.366074 465.302429,168.277023 
	C465.355347,168.760010 465.522430,169.230469 465.623779,169.651459 
	C466.980194,170.597305 467.898865,169.607452 468.827484,169.036255 
	C480.702515,161.731903 493.886932,157.460800 506.784668,152.504120 
	C510.520966,151.068222 513.287476,152.722488 516.005432,154.642288 
	C519.367615,157.017120 522.164185,160.390793 526.886230,160.028687 
	C527.804993,159.958237 528.299622,160.694748 528.707581,161.480347 
	C532.322510,168.442001 526.763489,178.090942 518.773071,178.246902 
	C507.957367,178.457962 497.138458,178.039490 486.383209,179.814590 
	C470.381409,182.455612 455.650146,188.503143 441.651642,196.399277 
	C429.175720,203.436615 416.424988,210.154205 404.698242,218.310791 
	C389.355713,228.982330 376.445557,242.610748 363.606384,256.147705 
	C346.580292,274.099182 334.971436,295.029724 330.879333,319.580566 
	C328.750336,332.353516 327.892944,345.334442 326.281525,358.198914 
	C324.947876,368.845978 325.411102,379.867706 319.452484,389.580139 
	C317.354156,393.000397 318.105072,397.039459 318.651337,400.839752 
	C319.786285,408.735229 321.034302,416.614410 322.180969,424.508240 
	C322.345032,425.637726 322.203674,426.811615 322.203674,428.340485 
	C319.453033,428.883728 315.616852,428.744354 316.944244,433.248077 
	C317.955780,436.679993 319.718445,439.248779 323.802094,436.377686 
	C327.055389,440.628876 328.532440,445.296356 330.001892,449.796387 
	C334.945282,464.934601 344.055298,477.143005 355.096924,488.344482 
	C374.527924,508.056854 395.473358,526.160950 415.150757,545.600281 
	C418.489349,548.898438 421.617706,546.373657 424.855957,545.740051 
	C426.464935,545.425232 427.308289,543.383728 429.468323,543.793091 
	C431.073517,547.513916 427.507660,549.256287 426.046967,552.148010 
	C436.425415,558.850708 447.539520,563.538330 459.836548,564.604736 
	C478.764160,566.246216 497.555573,568.575684 515.991821,573.296753 
	C518.130432,573.844360 520.271606,574.007812 522.415161,573.450439 
	C530.328491,571.392944 538.383667,570.271729 546.524170,569.642822 
	C551.196289,569.281799 554.435486,565.861633 556.082336,562.437866 
	C557.626587,559.227295 561.112183,556.266846 559.250977,551.552185 
	C562.954773,552.898010 563.817322,556.182129 566.322144,558.310730 
	C568.497986,555.902283 572.676086,555.963562 573.005005,551.757935 
	C578.239136,553.335693 582.116272,546.151245 587.461060,550.148193 
	C588.740173,550.964783 587.546387,553.041260 589.591797,554.105652 
	C592.554077,554.252075 593.839111,550.501892 596.713013,549.872803 
	C603.330200,554.999146 603.967468,555.037659 611.486511,550.157776 
	C637.224060,533.453979 661.921936,515.306396 686.085449,496.415466 
	C690.424622,493.023193 694.630127,489.414307 700.660645,489.244812 
	C702.805481,489.184540 703.873840,487.059509 704.939209,485.355988 
	C708.237610,480.081909 712.378906,475.537354 717.028870,471.444672 
	C718.360229,470.272797 719.550049,468.750580 721.742126,468.869843 
	C722.656738,471.224213 721.117798,473.034332 720.373413,474.947235 
	C710.746765,499.685699 697.772034,522.442200 680.157898,542.417603 
	C678.449646,544.354858 677.493652,546.396790 677.022766,548.995544 
	C675.842957,555.505493 673.555664,557.183777 666.788147,557.361267 
	C659.989624,557.539551 658.508728,558.840576 659.048279,564.951050 
	C653.297607,561.053650 648.233032,563.335327 642.808777,566.001099 
	C644.916931,570.792297 650.778320,574.028198 648.819153,580.233276 
	C647.293274,580.528076 646.701050,579.616760 646.002014,578.945862 
	C640.597656,573.759277 640.465210,573.617737 635.052979,578.901367 
	C630.051941,583.783569 625.358398,588.982971 620.581604,594.091492 
	C618.866333,595.925964 618.496887,598.287170 618.869507,600.644104 
	C619.460999,604.385559 617.740845,605.454956 614.356018,605.118042 
	C612.874207,604.970459 611.357422,605.010437 609.869080,605.126038 
	C606.911194,605.355957 605.465820,607.036255 605.233704,609.995239 
	C605.069519,612.088135 605.806885,614.340576 604.310669,616.327026 
	C601.211060,617.076782 599.614685,614.840149 598.324646,612.853943 
	C595.641541,608.722656 592.321899,607.559570 587.658386,609.150513 
	C584.524597,610.219604 581.179871,610.654785 577.977722,611.546753 
	C576.576782,611.937134 575.234131,612.544800 574.597717,614.199280 
	C572.863281,618.708008 570.784607,619.471069 566.224854,617.233887 
	C561.897827,615.110901 557.851379,612.380371 553.074585,611.257690 
	C551.619690,610.915649 550.028076,610.140259 548.698853,610.442444 
	C539.748596,612.477112 531.270813,609.452759 522.631592,608.265503 
	C506.121338,605.996582 489.732666,607.858521 473.344360,609.625916 
	C468.360779,610.163452 468.375610,610.300842 467.086182,604.921875 
	C462.682434,606.271240 459.802155,603.046265 456.097290,600.952515 
M323.736298,451.819702 
	C325.536560,454.939728 324.677704,459.206665 328.034790,461.664124 
	C326.985046,458.163177 326.310730,454.523163 323.736298,451.819702 
z"/>
<path fill="#000000" opacity="1.000000" stroke="none" 
	d="
M417.648010,280.682312 
	C415.204102,279.876862 415.167725,278.125610 415.149445,276.463959 
	C415.092682,271.298492 415.144348,266.131775 415.088837,260.966278 
	C415.055145,257.834869 416.405731,256.600372 419.633087,256.615479 
	C440.464386,256.712921 461.296570,256.712006 482.127899,256.616638 
	C485.523285,256.601074 487.008789,257.686035 486.798920,261.233307 
	C486.504150,266.217133 486.346863,271.223785 486.468048,276.212494 
	C486.553314,279.722626 485.049622,281.037048 481.740417,280.956940 
	C478.409149,280.876312 475.061707,281.110077 471.744995,280.873779 
	C467.415192,280.565308 465.905334,282.284363 465.935669,286.652710 
	C466.095154,309.649872 466.014282,332.648712 466.016876,355.646973 
	C466.018372,368.706787 466.018433,368.708313 479.247650,368.708252 
	C504.079132,368.708099 528.911194,368.615906 553.741455,368.788361 
	C558.168091,368.819092 559.818054,367.761017 559.774780,362.972107 
	C559.545837,337.642731 559.554016,312.309174 559.777405,286.979645 
	C559.821045,282.029785 558.123657,280.443817 553.418823,280.852417 
	C549.946655,281.153931 546.424988,280.893799 542.925476,280.868134 
	C540.103943,280.847473 538.668640,279.595734 538.735657,276.587585 
	C538.850708,271.423920 538.852539,266.254303 538.745056,261.090424 
	C538.679871,257.960999 539.852295,256.613922 543.127563,256.627533 
	C564.125549,256.714722 585.124146,256.702209 606.122375,256.647919 
	C609.057739,256.640350 610.372131,257.710724 610.302002,260.746185 
	C610.182617,265.909454 610.143494,271.083099 610.339417,276.242218 
	C610.476746,279.860016 608.648438,280.924896 605.480225,280.893707 
	C601.980957,280.859253 598.464722,281.112488 594.985291,280.850098 
	C590.096436,280.481323 588.165405,282.190613 588.308838,287.366699 
	C588.738220,302.852814 588.834351,318.351105 588.858948,333.844971 
	C588.936768,382.841187 588.921021,431.837524 588.945862,480.833832 
	C588.949951,488.968292 588.960266,488.968231 597.239990,489.003540 
	C610.293030,489.059204 610.355896,489.059631 610.275635,502.324402 
	C610.197998,515.166931 611.916992,513.286011 599.092834,513.355530 
	C580.928101,513.454041 562.760742,513.245911 544.598145,513.466675 
	C539.939636,513.523315 538.357178,511.935791 538.681091,507.406464 
	C538.989441,503.095428 538.939087,498.734467 538.694397,494.415405 
	C538.475647,490.555298 539.891174,488.876465 543.817200,489.063171 
	C547.308044,489.229218 550.825989,488.876740 554.311462,489.089172 
	C558.444519,489.341034 559.760315,487.679108 559.735535,483.562134 
	C559.586792,458.898224 559.668274,434.232971 559.672119,409.568146 
	C559.672729,405.401794 559.547791,401.230682 559.707886,397.070526 
	C559.838562,393.676422 558.712585,392.417084 555.078186,392.500885 
	C527.926147,393.126862 500.768829,393.190277 473.616516,392.458740 
	C466.023224,392.254150 466.029846,392.124512 466.029327,399.491089 
	C466.027252,427.322327 466.017517,455.153534 466.032043,482.984772 
	C466.032990,484.790131 465.710663,486.651855 466.946228,489.057312 
	C471.537537,489.057312 476.477081,489.211914 481.401764,489.007446 
	C485.209991,488.849335 486.901550,490.114349 486.625854,494.154114 
	C486.308685,498.800934 486.266144,503.488220 486.468628,508.142059 
	C486.634155,511.945862 485.423035,513.468323 481.392761,513.438293 
	C460.895416,513.285339 440.396118,513.317017 419.898132,513.418457 
	C416.518066,513.435181 414.985626,512.324158 415.072540,508.839233 
	C415.197144,503.843079 415.131866,498.840363 415.058441,493.841766 
	C415.009735,490.527039 416.414642,488.941681 419.843597,489.042084 
	C423.839508,489.159088 427.851562,488.873077 431.838898,489.089203 
	C435.584229,489.292145 436.790161,487.742096 436.752472,484.111542 
	C436.617615,471.113983 436.708313,458.114075 436.709839,445.115051 
	C436.716003,392.785645 436.723175,340.456238 436.723083,288.126831 
	C436.723053,280.941162 436.704987,280.950714 429.569031,280.909943 
	C425.738617,280.888062 421.908386,280.826782 417.648010,280.682312 
z"/>
<path fill="#000000" opacity="1.000000" stroke="none" 
	d="
M729.046936,372.304016 
	C729.613708,366.892853 730.130066,361.939331 730.700867,356.463806 
	C725.728394,357.678101 723.943604,354.987671 723.824585,350.754639 
	C723.760925,348.491852 722.634460,347.193298 721.001587,345.827545 
	C713.302307,339.388000 708.158447,331.075226 703.838074,322.141937 
	C702.760498,319.913910 703.292542,317.963348 703.794739,315.875305 
	C706.525513,304.521606 704.209473,298.070587 694.763550,291.268127 
	C686.485046,285.306366 684.858826,275.828430 681.807495,267.105194 
	C680.479004,263.307129 680.770203,259.246246 680.401489,255.222443 
	C679.734070,255.178772 679.131104,254.942337 678.818481,255.147705 
	C671.310730,260.080231 665.214294,257.635803 658.479919,252.676773 
	C638.370789,237.868973 618.141235,223.205490 596.905396,209.990356 
	C588.766052,204.925217 580.621094,200.854630 570.705505,200.243118 
	C562.959045,199.765381 556.022705,196.062088 550.197021,190.745880 
	C546.525269,187.395264 544.360840,183.306534 545.910461,178.251785 
	C547.452637,173.221024 551.500427,171.735168 556.394592,171.385010 
	C559.558350,171.158630 562.670959,170.639603 565.817749,171.421906 
	C566.796936,171.665329 568.041992,171.913696 568.650085,171.059753 
	C572.974304,164.987595 579.386963,166.850586 585.183411,166.694794 
	C622.096375,165.702805 651.888855,181.100021 676.755310,207.198288 
	C684.134460,214.942978 688.538208,224.911606 694.295837,233.862595 
	C702.764587,247.028214 710.383972,260.768372 719.339478,273.582825 
	C725.380676,282.227203 727.259460,291.551117 728.359802,301.547516 
	C729.888245,315.434174 731.843201,329.271332 731.423401,343.296722 
	C731.405884,343.882996 731.770020,344.480682 732.015503,345.261383 
	C735.518921,344.293549 735.657166,339.318542 740.472351,339.359802 
	C735.086670,354.678406 732.934143,370.290314 731.123779,386.037933 
	C728.684082,381.779663 728.739380,377.285553 729.046936,372.304016 
z"/>
</svg>